inDegrees=no
num_controls=7
num_derivatives=13
num_iterations=110
num_multipliers=7
num_parameters=0
num_slacks=7
num_states=26
objective=0.496925
objective_accelerations=0.043076
objective_balance=0.003635
objective_effort=0.039652
objective_height=0.405044
objective_ligament=0.005517
solver_duration=1359.846718
status=Solve_Succeeded
success=true
DataType=double
version=3
OpenSimVersion=4.5
endheader
time	/jointset/ground_pelvis/pelvis_tilt/value	/jointset/ground_pelvis/pelvis_tx/value	/jointset/ground_pelvis/pelvis_ty/value	/jointset/hip_r/hip_flexion_r/value	/jointset/hip_r/hip_adduction_r/value	/jointset/hip_r/hip_rotation_r/value	/jointset/back/lumbar_extension/value	/jointset/patellofemoral_r/patellar_flexion_r/value	/jointset/knee_r/knee_flexion_r/value	/jointset/knee_r/knee_adduction_r/value	/jointset/knee_r/knee_rotation_r/value	/jointset/ankle_r/ankle_angle_r/value	/jointset/subtalar_r/subtalar_angle_r/value	/jointset/ground_pelvis/pelvis_tilt/speed	/jointset/ground_pelvis/pelvis_tx/speed	/jointset/ground_pelvis/pelvis_ty/speed	/jointset/hip_r/hip_flexion_r/speed	/jointset/hip_r/hip_adduction_r/speed	/jointset/hip_r/hip_rotation_r/speed	/jointset/back/lumbar_extension/speed	/jointset/patellofemoral_r/patellar_flexion_r/speed	/jointset/knee_r/knee_flexion_r/speed	/jointset/knee_r/knee_adduction_r/speed	/jointset/knee_r/knee_rotation_r/speed	/jointset/ankle_r/ankle_angle_r/speed	/jointset/subtalar_r/subtalar_angle_r/speed	/forceset/tau_hip_flexion_r	/forceset/tau_hip_adduction_r	/forceset/tau_hip_rotation_r	/forceset/tau_knee_flexion_r	/forceset/tau_ankle_angle_r	/forceset/tau_subtalar_angle_r	/forceset/tau_lumbar_extension	lambda_cid13_p0	lambda_cid14_p0	lambda_cid14_p1	lambda_cid14_p2	lambda_cid14_p3	lambda_cid14_p4	lambda_cid14_p5	/jointset/ground_pelvis/pelvis_tilt/accel	/jointset/ground_pelvis/pelvis_tx/accel	/jointset/ground_pelvis/pelvis_ty/accel	/jointset/hip_r/hip_flexion_r/accel	/jointset/hip_r/hip_adduction_r/accel	/jointset/hip_r/hip_rotation_r/accel	/jointset/back/lumbar_extension/accel	/jointset/patellofemoral_r/patellar_flexion_r/accel	/jointset/knee_r/knee_flexion_r/accel	/jointset/knee_r/knee_adduction_r/accel	/jointset/knee_r/knee_rotation_r/accel	/jointset/ankle_r/ankle_angle_r/accel	/jointset/subtalar_r/subtalar_angle_r/accel	gamma_cid13_p0	gamma_cid14_p0	gamma_cid14_p1	gamma_cid14_p2	gamma_cid14_p3	gamma_cid14_p4	gamma_cid14_p5
0	-0.006515327552574022	0.09626026738071775	0.9427240836525234	0.1762555222360518	-0.2321526026207124	-0.2616405631938085	-0.038598046466844	0.07317863873451015	0.07317863873451017	0.1745325613066107	0.1745327951799977	0.03247278518263602	-0.003451883828481097	0	0	0	0	0	0	0	0	0	0	0	0	0	0.2187138543266413	-0.1501329590313185	-0.04253827029314702	-0.3948355905538323	0.3863888955249973	-0.1500066532797837	-0.1170237671350582	-39.07625573347138	74.17763842665001	-42.3001330622097	-4.058484539431808	-29.147495067856	-677.7701904468257	50.79124308646207	-1.821052164444825	-1.133798516891289	-0.5985936723536078	9.004220398343602	0.2332247286257974	2.548214776265271	-4.957056887565038	9.609352411299513	9.609352411307031	-3.063223713923206	0.1733059337315081	3.309999184722623	0.9897958052404424	1.072610193030209e-07	6.340069657515024e-08	-7.27251252152548e-07	2.095544712298547e-07	2.983558396985322e-08	6.417654231777243e-08	-3.411978914622501e-07
0.01	-0.006601190914737704	0.09620579323601225	0.9426953394958388	0.1766905863074241	-0.2321393568849469	-0.2615045225221842	-0.03884843672857526	0.07364482618995259	0.07364482618994628	0.1743790488304731	0.1745287564144369	0.03263575973097466	-0.003401399378168051	-0.01724327269260078	-0.01070336522607958	-0.005737714947838492	0.08657023566337343	0.002619261588802905	0.02704262140484782	-0.04973622545672983	0.09276277875107576	0.09276277875110313	-0.03049524929602719	-0.0007859882098901742	0.03257831051993416	0.01006449480050874	0.2214551100015674	-0.1664215006722436	-0.04362431611257625	-0.4041502451596068	0.3993446172266203	-0.1393485260414798	-0.1181718466015171	-39.09174265716256	78.74926936400422	-36.95976424240062	-4.8083240490779	-33.94429846423863	-678.8685566435199	62.07710294701904	-1.686550515295784	-1.009880001052214	-0.5596801123291089	8.417043343289343	0.2717146952866117	2.757511994445545	-4.930631341320177	9.038512304246902	9.038512304246192	-3.011682272569058	-0.2012223840820763	3.229276765175857	1.009826344495715	1.456030377150507e-07	6.894335278971579e-08	-9.694653157216554e-07	2.195005445248527e-07	6.633654256476973e-08	-1.345028569476275e-07	-4.279473227890104e-07
0.02	-0.006861604142552961	0.09605003054392877	0.9426095542484099	0.1779780763740229	-0.2321008309690391	-0.2611030104021483	-0.03958593443819326	0.07502439577234946	0.07502439577234865	0.1739267825143819	0.1745175235296496	0.03312402334042017	-0.00325125997444201	-0.03490997313033163	-0.02025770947559452	-0.01140821814889408	0.1704851990449466	0.005056036028763557	0.05309428968373435	-0.097421489577191	0.1826764253915635	0.1826764253915765	-0.05975076799712158	-0.001438823849091743	0.06505781222175043	0.01993099068260402	0.2241963656765205	-0.1827100423131516	-0.04471036193194983	-0.4134648997653614	0.4123003389282601	-0.1286903988031547	-0.1193199260679732	-39.13735564295923	83.40646637252424	-31.62931583532002	-5.528134840226548	-38.92148831540616	-678.652053536248	73.10760475792885	-1.905737713470854	-0.9039943215783448	-0.5851513229970262	8.473165941983547	0.1967272988573518	2.350024151072983	-4.546864620311318	9.039525989181907	9.039525989181081	-2.815277594936653	0.1999364478692569	3.290237421099059	0.9501960215577591	1.839450561270805e-07	7.448600900428134e-08	-1.211679379290763e-06	2.294466178198507e-07	1.028375011596863e-07	-3.331822562130274e-07	-5.146967541157708e-07
0.03	-0.007299166781091687	0.09580261250181878	0.9424671397816136	0.1800926535314077	-0.2320393720610283	-0.2604485465754627	-0.04078966033075664	0.0772908131649144	0.07729081316491557	0.1731891626081471	0.174503232821156	0.03393493308020078	-0.003004332441005259	-0.05246076179829154	-0.02921827963098861	-0.01707974396629081	0.2520345251398091	0.007179892337247113	0.07765956063174773	-0.1429953810142105	0.2702359477627507	0.2702359477626642	-0.08752205920882897	-0.001422751398837525	0.09693345584653068	0.02935533768532258	0.2156173215430866	-0.190301127266225	-0.0422015406310278	-0.4014702682075688	0.3918774190900147	-0.1139751181585513	-0.1127675931314164	-39.2118040047669	77.45655678929248	-26.38184665359207	-6.248684024987677	-35.22494571495324	-677.8040189233878	82.23264982205224	-1.658460886050393	-0.8909247501925325	-0.5589809636974319	7.936472420795461	0.2116990950879585	2.489007638093479	-4.513405217243941	8.558462613323009	8.558462613309121	-2.720548156184453	-0.0979872281838912	3.107662365285344	0.9235117306684194	2.095611637493753e-07	8.243413285960449e-08	-1.372606121663126e-06	2.659670285928658e-07	1.203714784066152e-07	-4.344502213443919e-07	-5.959888214352272e-07
0.04	-0.007907979594827013	0.09546582148062034	0.9422678445061262	0.1830108552452538	-0.231958377730284	-0.2595525842250108	-0.04243927590005894	0.08042168523164087	0.08042168523164119	0.1721813311354089	0.1744890168627995	0.03505888616265308	-0.002666169899333349	-0.06916000816993051	-0.03813230529328271	-0.02278437988712133	0.3312101103369849	0.008963120575496036	0.1013939944368794	-0.1865994249250994	0.3555673602233737	0.3555673602232128	-0.113793081296403	-0.001423873820078321	0.127666480756025	0.03817799232962189	0.2070382774096552	-0.1978922122193022	-0.03969271933012226	-0.3894756366497709	0.3714544992517694	-0.09925983751395155	-0.1062152601948571	-39.31362902380905	71.58452678230448	-21.13372742259473	-6.954502424559758	-31.70337560427135	-675.7824468696481	91.14434920532472	-1.735429254206683	-0.8946854229583341	-0.5917733436837812	7.998417762446242	0.1286016848104322	2.183856722496624	-4.152895115085216	8.593904007069076	8.593904007073274	-2.51522377010999	0.1964974735702805	3.061713678041897	0.8298575498739199	2.349148814584796e-07	9.043185398587109e-08	-1.531856836794319e-06	3.030353638499638e-07	1.375143838731733e-07	-5.33709703297735e-07	-6.77168365785461e-07
0.05	-0.008680546847967223	0.0950403457474744	0.942011114172602	0.1867100458997884	-0.2318609020521483	-0.2584251766709526	-0.0445149700324155	0.08439532407815266	0.08439532407815301	0.1709177611538376	0.1744762214259557	0.03648488182980104	-0.002242269115277589	-0.08527024686084626	-0.04693002931788173	-0.02858199538918083	0.4082487578486026	0.01049965583851003	0.1239392300320433	-0.2282416400665045	0.4387487460376145	0.438748746037419	-0.1386913796747426	-0.001167034657963683	0.1573524619242551	0.04653228018194745	0.2003741392318342	-0.1820737070669168	-0.03795971280592622	-0.382153208233602	0.3627611021354971	-0.1078173311255342	-0.1010173611141447	-39.44106690743529	68.55716618646261	-25.41766743602406	-6.228861246379836	-29.65170915232759	-674.436910456719	81.09318197597909	-1.536314309728094	-0.8673664480697825	-0.5769094832223832	7.499715467834483	0.1611590387276883	2.267700333887884	-4.125220491737897	8.118459224542644	8.11845922453473	-2.442909596287325	-0.06438755419603558	2.895058184226095	0.8275242133637124	2.271325131396754e-07	8.271389381891626e-08	-1.464291959430567e-06	2.940393355585033e-07	1.401735908102357e-07	-6.067338604237867e-07	-6.618896930745109e-07
0.06	-0.009611715114654015	0.09452788266291068	0.9416957769181061	0.1911682484739015	-0.2317490651030468	-0.2570767480897687	-0.04699815347179997	0.08918841745399483	0.08918841745399098	0.1694120528435596	0.1744650614423824	0.03820234087823391	-0.001736963490608077	-0.1008802108795274	-0.05552977557683811	-0.03450576408144321	0.4830124942528188	0.01183537476875714	0.1455981998616713	-0.2680972863307015	0.5194582660894971	0.5194582660892428	-0.1622207470367374	-0.001096783164972357	0.1859591570129867	0.05445896045234682	0.1937100010539943	-0.1662552019145322	-0.03622670628174291	-0.3748307798174442	0.3540677050192198	-0.1163748247371186	-0.09581946203344298	-39.59191685903411	65.60054908662812	-29.71757797082341	-5.468282020668891	-27.74728906866488	-671.9891527511129	70.80721285945658	-1.635374319759766	-0.8550898698297952	-0.6170039817243568	7.543435540965954	0.08843841825706232	2.006603569389417	-3.795581339643618	8.09953085459742	8.099530854596827	-2.24143756684105	0.1591799397456365	2.845856462142204	0.744336033488695	2.179549411986435e-07	7.433422075540475e-08	-1.387176951856501e-06	2.831037551176297e-07	1.42222957809214e-07	-6.786533722939524e-07	-6.425496217504583e-07
0.07000000000000001	-0.01069692424211427	0.09393042504463524	0.9413203672606647	0.1963636623616926	-0.2316250040847047	-0.2555184244136565	-0.04987047190893658	0.09477751319613581	0.09477751319612972	0.167678158557462	0.1744560782517887	0.04020082658428617	-0.001154539594754322	-0.1160684048342153	-0.06392484485027736	-0.04060701448057173	0.5556898863460785	0.01295425429363443	0.1659052371264604	-0.3060742391340354	0.5979700840284627	0.5979700840284361	-0.1843435294815188	-0.0007286901526198912	0.2135733841897004	0.06197130152778554	0.1865516579346319	-0.1594422659040801	-0.03422823018629947	-0.3677296879965865	0.3432654578003291	-0.1158407609171733	-0.09024964428572681	-39.76383801328193	62.28590159045805	-30.1792449127304	-5.265332570737709	-25.83410972475754	-670.0125806459339	68.16169656050054	-1.446530226185931	-0.8261515024450724	-0.6114492324910138	7.072848356031612	0.1200864550667287	2.018637810404468	-3.754927956309091	7.66834403734758	7.668344037382141	-2.16569390279611	-0.02860453219343039	2.694558402796939	0.7463202854599975	1.955588338964377e-07	6.265621561204115e-08	-1.215650994524033e-06	2.666194633311603e-07	1.346478566436727e-07	-7.120290686088582e-07	-5.919150356738386e-07
